/* XPM */
static char *result[] = {
/* columns rows colors chars-per-pixel */
"32 32 3 1 ",
"  c black",
". c #FFF206",
"X c #FFF987",
/* pixels */
"            ...XXX..            ",
"         .....XXXX.....         ",
"       .......XXX........       ",
"      ........XX..........      ",
"     ........XX............     ",
"    .........X..............    ",
"   .........XX.............XX   ",
"  ..........X..............XX.  ",
"  .........XX.............XX..  ",
" .........XX.............XX.... ",
" .........XX............XX..... ",
" ........XX............XX...... ",
"........XXX............XX.......",
"........XX...........XXX........",
".......XX............XX.........",
"......XXX...........XX..........",
"......XX...........XX...........",
".....XX............X............",
"....XXX...........XX............",
"....XX...........XX.............",
" ..XX............X............. ",
" .XXX...........XX............. ",
" XXX............X.............. ",
"  XX...........XX.............  ",
"  X............X..............  ",
"   ...........XX.............   ",
"    .........XXX............    ",
"     .......XXX............     ",
"      ......XX............      ",
"       ....XX............       ",
"         .XX...........         ",
"            ........            "
};
