/* XPM */
static char *result[] = {
/* columns rows colors chars-per-pixel */
"32 32 3 1 ",
"  c black",
". c #FFF206",
"X c #FFF987",
/* pixels */
"            ........            ",
"         XX............         ",
"       ..XX..............       ",
"      ...X................      ",
"     ...XX................X     ",
"    ...XX.................X.    ",
"   ....XX................XX..   ",
"  ....XX.................X....  ",
"  ....X.................XX....  ",
" ....X..................X...... ",
" ....X.................XX...... ",
" ....X.................X....... ",
"....X.................XX........",
"....X................XXX.......X",
"....X................XX........X",
"...X................XXX.......XX",
"..X................XXX........X.",
".X................XXX........XX.",
"XX................XXX........X..",
"X................XXX........XX..",
" ...............XXX........XX.. ",
" ...............XX.........X... ",
" ...............XX........XX... ",
"  .............XX.........X...  ",
"  ............XXX........XX...  ",
"   ...........XX.........X...   ",
"    ..........XX........XX..    ",
"     ........XX.........XX.     ",
"      ......XXX........XX.      ",
"       .....XX.........XX       ",
"         ..XX..........         ",
"            X.......            "
};
