/* XPM */
static char *result[] = {
/* columns rows colors chars-per-pixel */
"32 32 3 1 ",
"  c black",
". c #FFF206",
"X c #FFF987",
/* pixels */
"            ........            ",
"         .............X         ",
"       .XX...........XXX.       ",
"      .XX............XX...      ",
"     ..X.............X.....     ",
"    ..XX............XX......    ",
"   ..XX............XX........   ",
"  ...X.............X.........X  ",
"  ..X.............XX........XX  ",
" ..XX............XXX........X.. ",
" .XX.............XX........XX.. ",
" .X..............X.........X... ",
".XX.............XX.........X....",
"XX..............X.........XX....",
"X..............XX.........X.....",
"...............X.........XX.....",
"..............XX.........X......",
".............XX.........XX......",
".............X..........X.......",
"............XX.........X........",
" ...........X.........XX....... ",
" ..........XX.........X........ ",
" ..........X..........X........ ",
"  ........XX.........XX.......  ",
"  ........X..........X........  ",
"   .......X..........X.......   ",
"    .....XX.........X.......    ",
"     ...XX..........X......     ",
"      .XX...........X.....      ",
"       XX..........X.....       ",
"         ..........X...         ",
"            .......X            "
};
