/* XPM */
static char *f0e51a0896a14d7386443041dd5b4d90J2vX9Sx7xQR19sbC[] = {
/* columns rows colors chars-per-pixel */
"32 32 3 1 ",
"  c black",
". c #00FF9A",
"X c #9CFFD8",
/* pixels */
"................................",
".                              .",
". ............................ .",
". ............................ .",
". ............................ .",
". ............................ .",
". ............................ .",
". ............................ .",
". ............................ .",
". ............................ .",
". ....................... .... .",
". ....................... .... .",
". ....................... .... .",
". .....................     .. .",
". .....................     .. .",
". ..................           .",
". .....................     .. .",
". .....................     .. X",
". ....................... ....XX",
". ....................... ...XXX",
". ....................... ..XXX.",
". .........................XXX .",
". ........................XXX. .",
". ........................XXX. .",
". ......................XXXX.. .",
". ......................XXX... .",
". ......................XX.... .",
". ....................XXX..... .",
". ....................XXX..... .",
". ...................XXX...... .",
".                   XXX        .",
"....................XXX........."
};
