/* XPM */
static char *_34b354745784048df79facc95ac19b6IULTHVThmJMXtp3N[] = {
/* columns rows colors chars-per-pixel */
"32 32 3 1 ",
"  c black",
". c #00FF9A",
"X c #9CFFD8",
/* pixels */
"......XXXX......................",
".     XXX                      .",
". ...XXX...................... .",
". ..XX........................ .",
". .XXX........................ .",
". XXX......................... .",
". XX.......................... .",
".XX........................... .",
"XXX........................... .",
"XXX........................... .",
"XX....................... .... .",
"XX....................... .... .",
"X ....................... .... .",
". .....................     .. .",
". .....................     .. .",
". ..................           .",
". .....................     .. .",
". .....................     .. .",
". ....................... .... .",
". ....................... .... .",
". ....................... .... .",
". ............................ .",
". ............................ .",
". ............................ .",
". ............................ .",
". ............................ .",
". ............................ .",
". ............................ .",
". ............................ .",
". ............................ .",
".                              .",
"................................"
};
