/* XPM */
static char *d1db5fd845254b53eafbb5bfd46dea979VeI2oqfrXTLsaar[] = {
/* columns rows colors chars-per-pixel */
"32 32 3 1 ",
"  c black",
". c #00FF9A",
"X c #9CFFD8",
/* pixels */
"..........................XXXXX.",
".                         XXXX .",
". .......................XXXX. .",
". .......................XXX.. .",
". ......................XXX... .",
". .....................XXX.... .",
". ....................XXX..... .",
". ..................XXXX...... .",
". .................XXX........ .",
". .................XX......... .",
". ................XXX.... .... .",
". ...............XXX..... .... .",
". ...............XX...... .... .",
". ..............XX.....     .. .",
". .............XXX.....     .. .",
". ............XXX...           .",
". ..........XXXX.......     .. .",
". .........XXXX........     .. .",
". .........XXX........... .... .",
". ........XX............. .... .",
". .......XX.............. .... .",
". .....XXX.................... .",
". .....XX..................... .",
". ....XXX..................... .",
". ...XXX...................... .",
". ..XXX....................... .",
". ..XX........................ .",
". .XX......................... .",
". XX.......................... .",
"XXXX.......................... .",
"XXX                            .",
"XX.............................."
};
